<?xml version="1.0" encoding="utf-8"?>
<!-- Generator: Adobe Illustrator 19.0.0, SVG Export Plug-In . SVG Version: 6.00 Build 0)  -->
<svg version="1.1" id="Ebene_1" xmlns="http://www.w3.org/2000/svg" xmlns:xlink="http://www.w3.org/1999/xlink" x="0px" y="0px"
	 viewBox="0 0 1024 1024" style="enable-background:new 0 0 1024 1024;" xml:space="preserve">
<style type="text/css">
	.st0{fill:#323232;}
	.st1{fill:#25B2E6;}
</style>
<g id="XMLID_1_">
	<path id="XMLID_8_" class="st0" d="M332.9,542.8c0,28.2-5.6,32.1-31.7,32.1c-26.1,0-31.5-3.8-31.5-32.1v-91.6
		c0-28.1,5.4-31.9,31.5-31.9c26.1,0,31.7,3.8,31.7,31.9V542.8z M310.6,451.1c0-10.4-1.3-12.1-9.4-12.1c-8.1,0-9.4,2.3-9.4,12.1v91.6
		c0,10.6,1.3,12.5,9.4,12.5c8.3,0,9.4-2.3,9.4-12.5V451.1z"/>
	<path id="XMLID_11_" class="st0" d="M403.2,550.4c0,18.3-3.5,23.4-18.6,23.4c-8.8,0-13.8-2.9-16.7-7.9v36.3h-19.6V457.8h18.3v8.5
		c3.3-6.7,8.6-9.4,17.9-9.4c15.4,0,18.8,5.4,18.8,23.4V550.4z M367.3,550.4c1.5,3.7,4.4,6,8.6,6c6.5,0,8.3-1.9,8.3-9.6v-62.6
		c0-7.7-1.7-9.6-8.3-9.6c-4.2,0-7.1,2.3-8.6,6V550.4z"/>
	<path id="XMLID_14_" class="st0" d="M436.5,522.2v27.1c0,7.3,1.2,8.8,8.3,8.8c6.9,0,8.3-1.5,8.3-8.8v-15.6h17.7v16.7
		c0,21.5-4.6,24.4-25.9,24.4c-22.7,0-27.5-2.9-27.5-24.4v-70.1c0-21.5,4.8-24.4,27.5-24.4c21.3,0,25.9,2.9,25.9,24.4v41.9H436.5z
		 M436.5,506.4H453v-24.6c0-7.3-1.3-8.6-8.3-8.6c-7.1,0-8.3,1.3-8.3,8.6V506.4z"/>
	<path id="XMLID_17_" class="st0" d="M505.8,572.9h-19.6V457.8h18.3v7.7c2.9-5.6,8.5-8.6,18.1-8.6c15.6,0,20.4,5.4,20.4,23.4v92.6
		h-19.6v-90.5c0-6-1.9-7.9-8.5-7.9c-5,0-7.5,2.3-9,6V572.9z"/>
	<path id="XMLID_19_" class="st0" d="M581.3,515.5v57.4h-22.1V421.1h31.5c26.1,0,31.7,3.8,31.7,30.9v32.5c0,27.3-6,30.9-31.7,30.9
		H581.3z M581.3,440.4v57.3h9.4c7.9,0,9.4-1.9,9.4-12.3v-33.2c0-9.8-0.8-11.7-9.4-11.7H581.3z"/>
	<path id="XMLID_22_" class="st0" d="M655.1,572.9h-19.6V457.8h18.3v7.7c2.7-5.2,8.5-8.6,17.9-8.6c13.4,0,17.9,5.4,17.9,23.4v28.6
		h-17.7v-26.3c0-6.1-1.5-8.1-8.1-8.1c-4,0-7.3,2.3-8.6,6.3V572.9z"/>
	<path id="XMLID_24_" class="st0" d="M753.9,550.4c0,21.5-5,24.4-27.5,24.4c-22.7,0-27.5-2.9-27.5-24.4v-70.1
		c0-21.5,4.8-24.4,27.5-24.4c22.5,0,27.5,2.9,27.5,24.4V550.4z M734.8,482.4c0-6.7-1.3-8.1-8.5-8.1c-7.1,0-8.5,1.7-8.5,8.1v66.1
		c0,6.7,1.3,8.3,8.5,8.3c7.3,0,8.5-2.1,8.5-8.3V482.4z"/>
	<path id="XMLID_27_" class="st0" d="M770.2,457.8h19.6v117c0,18.4-7.7,27.5-27.3,27.5h-10.8v-16.5h9.2c6.5,0,9.2-2.9,9.2-11V457.8z
		 M789.8,441.1h-19.6v-20h19.6V441.1z"/>
	<path id="XMLID_30_" class="st0" d="M824.4,522.2v27.1c0,7.3,1.2,8.8,8.3,8.8c6.9,0,8.3-1.5,8.3-8.8v-15.6h17.7v16.7
		c0,21.5-4.6,24.4-25.9,24.4c-22.7,0-27.5-2.9-27.5-24.4v-70.1c0-21.5,4.8-24.4,27.5-24.4c21.3,0,25.9,2.9,25.9,24.4v41.9H824.4z
		 M824.4,506.4h16.5v-24.6c0-7.3-1.3-8.6-8.3-8.6c-7.1,0-8.3,1.3-8.3,8.6V506.4z"/>
	<path id="XMLID_33_" class="st0" d="M908.1,500.5v-18.1c0-6.7-1.3-8.1-8.1-8.1c-7.5,0-8.5,1.5-8.5,8.1v66.1c0,6.7,1.3,8.3,8.5,8.3
		c6.7,0,8.1-2.1,8.1-8.3v-29.8H926v31.7c0,21.7-5.4,24.4-25.9,24.4c-22.9,0-27.5-3.3-27.5-24.4v-70.1c0-21.3,5-24.4,27.5-24.4
		c21.7,0,25.9,3.8,25.9,24.4v20.2H908.1z"/>
	<path id="XMLID_35_" class="st0" d="M974.6,473.8h-13.4V546c0,7.9,1.9,10.2,9.6,10.2h3.7v16.7h-5c-21.1,0-27.9-7.5-27.9-24.4v-74.7
		h-7.1v-15.9h7.1v-35h19.6v35h13.4V473.8z"/>
</g>
<g id="XMLID_3_">
	<path id="XMLID_4_" class="st1" d="M206.1,427.6c5.9,5.9,8.9,13.1,8.9,21.5v38.7c0,8.4-3,15.5-8.9,21.5c-5.9,5.9-13.1,8.9-21.5,8.9
		h-18.8c-0.5,0-1.2-0.1-2.1-0.2c-0.9-0.1-1.6-0.2-2.1-0.2h-5.9v35.2c0,2.8-1,5.1-3,7c-2,1.9-4.4,2.8-7.2,2.8s-5.2-0.9-7.2-2.8
		c-2-1.9-3-4.2-3-7v-35.2h-11.5c1.2,3.5,1.7,6.8,1.7,9.8v38.7c0,8.4-3,15.5-8.9,21.5c-5.9,5.9-13.1,8.9-21.5,8.9H76.5
		c-8.4,0-15.5-3-21.5-8.9c-5.9-5.9-8.9-13.1-8.9-21.5v-38.7c0-8.4,3-15.5,8.9-21.5c5.9-5.9,13.1-8.9,21.5-8.9h18.8
		c0.7,0,1.5,0.1,2.4,0.2c0.9,0.1,1.6,0.2,2.1,0.2c0.2,0,0.6-0.1,1-0.2c0.5-0.1,0.9-0.2,1.4-0.2h33.2v-48.2c0-8.4,3-15.5,8.9-21.5
		c5.9-5.9,13.1-8.9,21.5-8.9h18.8C193,418.7,200.2,421.7,206.1,427.6z M105.4,527.6c0-2.8-1-5.1-3-7c-2-1.9-4.4-2.8-7.2-2.8H76.5
		c-2.8,0-5.1,0.9-7,2.8c-1.9,1.9-2.8,4.2-2.8,7v38.7c0,2.8,0.9,5.1,2.8,7c1.9,1.9,4.2,2.8,7,2.8h18.8c2.8,0,5.2-1,7.2-3
		c2-2,3-4.2,3-6.8V527.6z M194.4,449.1c0-2.8-1-5.1-3-7c-2-1.9-4.2-2.8-6.8-2.8h-18.8c-2.8,0-5.2,1-7.2,3c-2,2-3,4.2-3,6.8v38.7
		c0,5.1,2.7,8.3,8,9.4h1h-1c0.5,0.2,1.2,0.3,2.1,0.3h18.8c2.8,0,5.1-0.9,7-2.8c1.9-1.9,2.8-4.2,2.8-7V449.1z"/>
</g>
</svg>
