<?xml version="1.0" encoding="utf-8"?>
<!-- Generator: Adobe Illustrator 16.0.4, SVG Export Plug-In . SVG Version: 6.00 Build 0)  -->
<!DOCTYPE svg PUBLIC "-//W3C//DTD SVG 1.1//EN" "http://www.w3.org/Graphics/SVG/1.1/DTD/svg11.dtd">
<svg version="1.1" id="Ebene_1" xmlns="http://www.w3.org/2000/svg" xmlns:xlink="http://www.w3.org/1999/xlink" x="0px" y="0px"
	 width="177px" height="40px" viewBox="0 0 177 40" enable-background="new 0 0 177 40" xml:space="preserve">
<g>
	<path fill="none" d="M129.315,13.331c-1.347,0-1.601,0.328-1.601,1.528v12.514c0,1.272,0.254,1.564,1.601,1.564
		c1.383,0,1.601-0.401,1.601-1.564V14.859C130.916,13.585,130.662,13.331,129.315,13.331z"/>
	<path fill="none" d="M62.964,13.367c-0.8,0-1.346,0.437-1.637,1.128v13.242c0.292,0.69,0.837,1.127,1.637,1.127
		c1.237,0,1.564-0.363,1.564-1.819V15.186C64.529,13.731,64.201,13.367,62.964,13.367z"/>
	<path fill="none" d="M75.987,13.112c-1.346,0-1.564,0.255-1.564,1.637v4.656h3.128V14.75
		C77.552,13.367,77.297,13.112,75.987,13.112z"/>
	<path fill="none" d="M48.814,6.637c-1.528,0-1.782,0.437-1.782,2.292v17.352c0,2.001,0.254,2.364,1.782,2.364
		c1.564,0,1.782-0.437,1.782-2.364V8.929C50.597,6.965,50.342,6.637,48.814,6.637z"/>
	<path fill="none" d="M103.633,6.892h-1.781v10.84h1.781c1.492,0,1.783-0.363,1.783-2.327V9.111
		C105.416,7.256,105.271,6.892,103.633,6.892z"/>
	<path fill="none" d="M149.433,13.112c-1.346,0-1.565,0.255-1.565,1.637v4.656h3.128V14.75
		C150.995,13.367,150.741,13.112,149.433,13.112z"/>
	<path fill="#29B2E7" d="M27.616,2.965h-6.167c-0.898,0.078-1.777,0.413-2.469,0.997c-0.797,0.658-1.339,1.613-1.499,2.632
		c-0.07,0.408-0.053,0.823-0.054,1.234c0,3.447,0,6.894,0,10.34c-4.124,0-8.248,0.001-12.371,0
		c-1.356-0.026-2.704,0.633-3.509,1.724c-0.515,0.681-0.808,1.517-0.861,2.368v11.139c0.061,1.116,0.561,2.202,1.387,2.957
		c0.72,0.671,1.675,1.064,2.652,1.142h6.145c0.837-0.052,1.662-0.336,2.338-0.837c0.903-0.657,1.527-1.682,1.703-2.784
		c0.073-0.431,0.052-0.869,0.055-1.304c0-3.427,0.001-6.853-0.001-10.28c0.821,0,1.642,0,2.463,0
		c0.001,2.689-0.002,5.377,0.001,8.064c0,0.728,0.428,1.428,1.064,1.774c0.737,0.421,1.729,0.314,2.356-0.258
		c0.452-0.39,0.714-0.982,0.703-1.578c0-2.669,0-5.335,0.001-8.003c1.783,0,3.566,0,5.349,0c0.333,0,0.667,0.012,0.998-0.029
		c1.114-0.126,2.169-0.708,2.865-1.587c0.554-0.687,0.872-1.546,0.942-2.424V6.991c-0.081-0.975-0.474-1.925-1.144-2.643
		C29.81,3.526,28.727,3.028,27.616,2.965z M9.368,33.368c-0.986,0.007-1.972,0.001-2.958,0.003
		c-0.667,0.035-1.318-0.413-1.522-1.048c-0.093-0.255-0.082-0.529-0.08-0.795c0-2.566-0.001-5.132,0-7.698
		c-0.017-0.737,0.575-1.421,1.304-1.52c1.061-0.041,2.126-0.008,3.189-0.02c0.796-0.02,1.523,0.677,1.535,1.472
		c0.007,2.69,0.001,5.38,0.002,8.068C10.861,32.629,10.165,33.355,9.368,33.368z M27.582,16.634
		c0.019,0.795-0.678,1.521-1.474,1.532c-1.028,0.004-2.053,0.004-3.079,0c-0.776-0.01-1.463-0.697-1.475-1.472
		c-0.006-2.691-0.002-5.381-0.002-8.071c-0.015-0.738,0.578-1.42,1.306-1.517c0.834-0.04,1.671-0.006,2.506-0.018
		c0.404,0.017,0.827-0.053,1.214,0.096c0.59,0.213,1.015,0.814,1.004,1.443C27.583,11.296,27.583,13.965,27.582,16.634z"/>
	<path d="M48.814,2.891c-4.948,0-5.966,0.728-5.966,6.039v17.352c0,5.348,1.018,6.076,5.966,6.076c4.947,0,6.002-0.729,6.002-6.076
		V8.929C54.816,3.618,53.762,2.891,48.814,2.891z M50.597,26.281c0,1.928-0.218,2.364-1.782,2.364c-1.528,0-1.782-0.363-1.782-2.364
		V8.929c0-1.855,0.254-2.292,1.782-2.292s1.782,0.328,1.782,2.292V26.281z"/>
	<path d="M64.565,10.021c-1.747,0-2.765,0.509-3.383,1.782v-1.601h-3.456v27.356h3.711v-6.875c0.545,0.945,1.492,1.491,3.165,1.491
		c2.874,0,3.528-0.982,3.528-4.438V14.459C68.13,11.039,67.476,10.021,64.565,10.021z M64.529,27.045
		c0,1.456-0.328,1.819-1.564,1.819c-0.8,0-1.346-0.437-1.637-1.127V14.496c0.292-0.691,0.837-1.128,1.637-1.128
		c1.237,0,1.564,0.364,1.564,1.819V27.045z"/>
	<path d="M75.987,9.839c-4.292,0-5.202,0.546-5.202,4.62v13.278c0,4.073,0.91,4.62,5.202,4.62c4.038,0,4.911-0.547,4.911-4.62
		v-3.165h-3.346v2.946c0,1.382-0.254,1.674-1.564,1.674c-1.346,0-1.564-0.292-1.564-1.674v-5.13h6.475v-7.93
		C80.898,10.385,80.025,9.839,75.987,9.839z M77.552,19.406h-3.128V14.75c0-1.382,0.218-1.637,1.564-1.637
		c1.31,0,1.564,0.255,1.564,1.637V19.406z"/>
	<path d="M90.72,10.021c-1.818,0-2.874,0.582-3.419,1.636v-1.455h-3.456v21.79h3.711V14.496c0.29-0.691,0.764-1.128,1.709-1.128
		c1.236,0,1.602,0.364,1.602,1.492v17.133h3.711V14.459C94.577,11.039,93.667,10.021,90.72,10.021z"/>
	<path d="M103.633,3.254h-5.965v28.738h4.184V21.115h1.781c4.875,0,6.003-0.69,6.003-5.857V9.111
		C109.636,3.982,108.581,3.254,103.633,3.254z M105.416,15.405c0,1.964-0.291,2.327-1.783,2.327h-1.781V6.892h1.781
		c1.638,0,1.783,0.364,1.783,2.219V15.405z"/>
	<path d="M118.949,10.021c-1.784,0-2.874,0.655-3.385,1.636v-1.455h-3.456v21.79h3.712V14.568c0.255-0.764,0.873-1.201,1.638-1.201
		c1.235,0,1.526,0.364,1.526,1.528v4.984h3.348v-5.42C122.332,11.039,121.495,10.021,118.949,10.021z"/>
	<path d="M134.518,14.459c0-4.074-0.946-4.62-5.202-4.62c-4.292,0-5.203,0.546-5.203,4.62v13.278c0,4.073,0.911,4.62,5.203,4.62
		c4.256,0,5.202-0.547,5.202-4.62V14.459z M130.916,27.373c0,1.163-0.218,1.564-1.601,1.564c-1.347,0-1.601-0.292-1.601-1.564
		V14.859c0-1.201,0.254-1.528,1.601-1.528s1.601,0.255,1.601,1.528V27.373z"/>
	<rect x="137.61" y="3.254" width="3.709" height="3.783"/>
	<path d="M137.61,32.357c0,1.526-0.51,2.073-1.748,2.073h-1.745v3.128h2.037c3.71,0,5.165-1.711,5.165-5.201V10.203h-3.709V32.357z"
		/>
	<path d="M149.433,9.839c-4.294,0-5.204,0.546-5.204,4.62v13.278c0,4.073,0.91,4.62,5.204,4.62c4.038,0,4.91-0.547,4.91-4.62v-3.165
		h-3.348v2.946c0,1.382-0.254,1.674-1.562,1.674c-1.346,0-1.565-0.292-1.565-1.674v-5.13h6.476v-7.93
		C154.343,10.385,153.471,9.839,149.433,9.839z M150.995,19.406h-3.128V14.75c0-1.382,0.22-1.637,1.565-1.637
		c1.309,0,1.562,0.255,1.562,1.637V19.406z"/>
	<path d="M162.199,9.839c-4.255,0-5.201,0.582-5.201,4.62v13.278c0,4.001,0.872,4.62,5.201,4.62c3.894,0,4.911-0.51,4.911-4.62
		v-6.004h-3.383v5.64c0,1.163-0.255,1.564-1.528,1.564c-1.346,0-1.6-0.292-1.6-1.564V14.859c0-1.237,0.182-1.528,1.6-1.528
		c1.273,0,1.528,0.255,1.528,1.528v3.419h3.383v-3.819C167.11,10.566,166.311,9.839,162.199,9.839z"/>
	<path d="M176.314,13.222v-3.019h-2.547V3.582h-3.71v6.621h-1.347v3.019h1.347v14.151c0,3.201,1.272,4.619,5.274,4.619h0.946v-3.165
		h-0.691c-1.456,0-1.819-0.437-1.819-1.928V13.222H176.314z"/>
</g>
</svg>
