<?xml version="1.0" encoding="utf-8"?>
<!-- Generator: Adobe Illustrator 16.0.4, SVG Export Plug-In . SVG Version: 6.00 Build 0)  -->
<!DOCTYPE svg PUBLIC "-//W3C//DTD SVG 1.1//EN" "http://www.w3.org/Graphics/SVG/1.1/DTD/svg11.dtd">
<svg version="1.1" id="Ebene_1" xmlns="http://www.w3.org/2000/svg" xmlns:xlink="http://www.w3.org/1999/xlink" x="0px" y="0px"
	 width="177px" height="40px" viewBox="0 0 177 40" style="enable-background:new 0 0 177 40;" xml:space="preserve">
<style type="text/css">
<![CDATA[
	.st0{fill:none;}
	.st1{fill:#3493B3;}
]]>
</style>
<g>
	<path class="st0" d="M129.3,13.3c-1.3,0-1.6,0.3-1.6,1.5v12.5c0,1.3,0.3,1.6,1.6,1.6c1.4,0,1.6-0.4,1.6-1.6V14.9
		C130.9,13.6,130.7,13.3,129.3,13.3z"/>
	<path class="st0" d="M63,13.4c-0.8,0-1.3,0.4-1.6,1.1v13.2c0.3,0.7,0.8,1.1,1.6,1.1c1.2,0,1.6-0.4,1.6-1.8V15.2
		C64.5,13.7,64.2,13.4,63,13.4z"/>
	<path class="st0" d="M76,13.1c-1.3,0-1.6,0.3-1.6,1.6v4.7h3.1v-4.7C77.6,13.4,77.3,13.1,76,13.1z"/>
	<path class="st0" d="M48.8,6.6c-1.5,0-1.8,0.4-1.8,2.3v17.4c0,2,0.3,2.4,1.8,2.4c1.6,0,1.8-0.4,1.8-2.4V8.9
		C50.6,7,50.3,6.6,48.8,6.6z"/>
	<path class="st0" d="M103.6,6.9h-1.8v10.8h1.8c1.5,0,1.8-0.4,1.8-2.3V9.1C105.4,7.3,105.3,6.9,103.6,6.9z"/>
	<path class="st0" d="M149.4,13.1c-1.3,0-1.6,0.3-1.6,1.6v4.7h3.1v-4.7C151,13.4,150.7,13.1,149.4,13.1z"/>
	<path class="st1" d="M27.6,3h-6.2C20.6,3,19.7,3.4,19,4c-0.8,0.7-1.3,1.6-1.5,2.6c-0.1,0.4-0.1,0.8-0.1,1.2c0,3.4,0,6.9,0,10.3
		c-4.1,0-8.2,0-12.4,0c-1.4,0-2.7,0.6-3.5,1.7c-0.5,0.7-0.8,1.5-0.9,2.4v11.1c0.1,1.1,0.6,2.2,1.4,3c0.7,0.7,1.7,1.1,2.7,1.1h6.1
		c0.8-0.1,1.7-0.3,2.3-0.8c0.9-0.7,1.5-1.7,1.7-2.8C15,33.4,15,33,15,32.6c0-3.4,0-6.9,0-10.3c0.8,0,1.6,0,2.5,0c0,2.7,0,5.4,0,8.1
		c0,0.7,0.4,1.4,1.1,1.8c0.7,0.4,1.7,0.3,2.4-0.3c0.5-0.4,0.7-1,0.7-1.6c0-2.7,0-5.3,0-8c1.8,0,3.6,0,5.3,0c0.3,0,0.7,0,1,0
		c1.1-0.1,2.2-0.7,2.9-1.6c0.6-0.7,0.9-1.5,0.9-2.4V7c-0.1-1-0.5-1.9-1.1-2.6C29.8,3.5,28.7,3,27.6,3z M9.4,33.4c-1,0-2,0-3,0
		c-0.7,0-1.3-0.4-1.5-1c-0.1-0.3-0.1-0.5-0.1-0.8c0-2.6,0-5.1,0-7.7c0-0.7,0.6-1.4,1.3-1.5c1.1,0,2.1,0,3.2,0c0.8,0,1.5,0.7,1.5,1.5
		c0,2.7,0,5.4,0,8.1C10.9,32.6,10.2,33.4,9.4,33.4z M27.6,16.6c0,0.8-0.7,1.5-1.5,1.5c-1,0-2.1,0-3.1,0c-0.8,0-1.5-0.7-1.5-1.5
		c0-2.7,0-5.4,0-8.1c0-0.7,0.6-1.4,1.3-1.5c0.8,0,1.7,0,2.5,0c0.4,0,0.8-0.1,1.2,0.1c0.6,0.2,1,0.8,1,1.4
		C27.6,11.3,27.6,14,27.6,16.6z"/>
	<path d="M48.8,2.9c-4.9,0-6,0.7-6,6v17.4c0,5.3,1,6.1,6,6.1c4.9,0,6-0.7,6-6.1V8.9C54.8,3.6,53.8,2.9,48.8,2.9z M50.6,26.3
		c0,1.9-0.2,2.4-1.8,2.4c-1.5,0-1.8-0.4-1.8-2.4V8.9c0-1.9,0.3-2.3,1.8-2.3s1.8,0.3,1.8,2.3V26.3z"/>
	<path d="M64.6,10c-1.7,0-2.8,0.5-3.4,1.8v-1.6h-3.5v27.4h3.7v-6.9c0.5,0.9,1.5,1.5,3.2,1.5c2.9,0,3.5-1,3.5-4.4V14.5
		C68.1,11,67.5,10,64.6,10z M64.5,27c0,1.5-0.3,1.8-1.6,1.8c-0.8,0-1.3-0.4-1.6-1.1V14.5c0.3-0.7,0.8-1.1,1.6-1.1
		c1.2,0,1.6,0.4,1.6,1.8V27z"/>
	<path d="M76,9.8c-4.3,0-5.2,0.5-5.2,4.6v13.3c0,4.1,0.9,4.6,5.2,4.6c4,0,4.9-0.5,4.9-4.6v-3.2h-3.3v2.9c0,1.4-0.3,1.7-1.6,1.7
		c-1.3,0-1.6-0.3-1.6-1.7v-5.1h6.5v-7.9C80.9,10.4,80,9.8,76,9.8z M77.6,19.4h-3.1v-4.7c0-1.4,0.2-1.6,1.6-1.6
		c1.3,0,1.6,0.3,1.6,1.6V19.4z"/>
	<path d="M90.7,10c-1.8,0-2.9,0.6-3.4,1.6v-1.5h-3.5V32h3.7V14.5c0.3-0.7,0.8-1.1,1.7-1.1c1.2,0,1.6,0.4,1.6,1.5V32h3.7V14.5
		C94.6,11,93.7,10,90.7,10z"/>
	<path d="M103.6,3.3h-6V32h4.2V21.1h1.8c4.9,0,6-0.7,6-5.9V9.1C109.6,4,108.6,3.3,103.6,3.3z M105.4,15.4c0,2-0.3,2.3-1.8,2.3h-1.8
		V6.9h1.8c1.6,0,1.8,0.4,1.8,2.2V15.4z"/>
	<path d="M118.9,10c-1.8,0-2.9,0.7-3.4,1.6v-1.5h-3.5V32h3.7V14.6c0.3-0.8,0.9-1.2,1.6-1.2c1.2,0,1.5,0.4,1.5,1.5v5h3.3v-5.4
		C122.3,11,121.5,10,118.9,10z"/>
	<path d="M134.5,14.5c0-4.1-0.9-4.6-5.2-4.6c-4.3,0-5.2,0.5-5.2,4.6v13.3c0,4.1,0.9,4.6,5.2,4.6c4.3,0,5.2-0.5,5.2-4.6V14.5z
		 M130.9,27.4c0,1.2-0.2,1.6-1.6,1.6c-1.3,0-1.6-0.3-1.6-1.6V14.9c0-1.2,0.3-1.5,1.6-1.5s1.6,0.3,1.6,1.5V27.4z"/>
	<rect x="137.6" y="3.3" width="3.7" height="3.8"/>
	<path d="M137.6,32.4c0,1.5-0.5,2.1-1.7,2.1h-1.7v3.1h2c3.7,0,5.2-1.7,5.2-5.2V10.2h-3.7V32.4z"/>
	<path d="M149.4,9.8c-4.3,0-5.2,0.5-5.2,4.6v13.3c0,4.1,0.9,4.6,5.2,4.6c4,0,4.9-0.5,4.9-4.6v-3.2H151v2.9c0,1.4-0.3,1.7-1.6,1.7
		c-1.3,0-1.6-0.3-1.6-1.7v-5.1h6.5v-7.9C154.3,10.4,153.5,9.8,149.4,9.8z M151,19.4h-3.1v-4.7c0-1.4,0.2-1.6,1.6-1.6
		c1.3,0,1.6,0.3,1.6,1.6V19.4z"/>
	<path d="M162.2,9.8c-4.3,0-5.2,0.6-5.2,4.6v13.3c0,4,0.9,4.6,5.2,4.6c3.9,0,4.9-0.5,4.9-4.6v-6h-3.4v5.6c0,1.2-0.3,1.6-1.5,1.6
		c-1.3,0-1.6-0.3-1.6-1.6V14.9c0-1.2,0.2-1.5,1.6-1.5c1.3,0,1.5,0.3,1.5,1.5v3.4h3.4v-3.8C167.1,10.6,166.3,9.8,162.2,9.8z"/>
	<path d="M176.3,13.2v-3h-2.5V3.6h-3.7v6.6h-1.3v3h1.3v14.2c0,3.2,1.3,4.6,5.3,4.6h0.9v-3.2h-0.7c-1.5,0-1.8-0.4-1.8-1.9V13.2H176.3
		z"/>
</g>
</svg>
