<?xml version="1.0" encoding="UTF-8" standalone="no"?>
<svg
   xmlns:dc="http://purl.org/dc/elements/1.1/"
   xmlns:cc="http://creativecommons.org/ns#"
   xmlns:rdf="http://www.w3.org/1999/02/22-rdf-syntax-ns#"
   xmlns:svg="http://www.w3.org/2000/svg"
   xmlns="http://www.w3.org/2000/svg"
   viewBox="0 0 219.53751 43.337502"
   height="43.337502"
   width="219.53751"
   xml:space="preserve"
   version="1.1"
   id="svg2"><metadata
     id="metadata8"><rdf:RDF><cc:Work
         rdf:about=""><dc:format>image/svg+xml</dc:format><dc:type
           rdf:resource="http://purl.org/dc/dcmitype/StillImage" /><dc:title></dc:title></cc:Work></rdf:RDF></metadata><defs
     id="defs6" /><g
     transform="matrix(1.25,0,0,-1.25,0,43.3375)"
     id="g10"><g
       transform="scale(0.1,0.1)"
       id="g12"><path
         id="path14"
         style="fill:#ffffff;fill-opacity:1;fill-rule:nonzero;stroke:none"
         d="m 268.977,209.246 c 0.187,-7.945 -6.786,-15.207 -14.743,-15.32 -10.281,-0.039 -20.535,-0.039 -30.793,0 -7.757,0.101 -14.632,6.969 -14.746,14.722 -0.062,26.911 -0.019,53.809 -0.023,80.707 -0.149,7.379 5.777,14.2 13.062,15.172 8.344,0.395 16.707,0.063 25.063,0.176 4.039,-0.168 8.266,0.531 12.141,-0.957 5.902,-2.129 10.148,-8.144 10.039,-14.433 0.011,-26.684 0.011,-53.375 0,-80.067 z M 86.8359,41.9063 C 76.9766,41.8359 67.1172,41.8945 57.2617,41.875 50.5898,41.5234 44.082,46.0078 42.0391,52.3555 c -0.9297,2.5468 -0.8125,5.2929 -0.8008,7.9492 0.0078,25.6641 -0.0117,51.3163 0.0078,76.9803 -0.168,7.375 5.75,14.207 13.0391,15.195 10.6132,0.411 21.2617,0.079 31.8945,0.196 7.9609,0.195 15.2343,-6.766 15.3513,-14.715 0.071,-26.906 0.016,-53.8008 0.024,-80.6837 0.207,-7.9804 -6.7503,-15.246 -14.7191,-15.371 z m 182.4771,304.0317 -61.672,0 c -8.985,-0.782 -17.774,-4.129 -24.692,-9.965 -7.969,-6.578 -13.386,-16.129 -14.984,-26.321 -0.703,-4.082 -0.531,-8.226 -0.543,-12.343 0,-34.465 0.004,-68.934 -0.004,-103.399 -41.234,-0.004 -82.4766,-0.008 -123.711,0 C 30.1484,194.172 16.668,187.582 8.61328,176.676 3.46094,169.867 0.53125,161.504 0,152.996 L 0,41.6133 C 0.609375,30.4492 5.60547,19.5898 13.8711,12.0391 21.0742,5.33203 30.6211,1.39844 40.3945,0.625 l 61.4535,0 c 8.371,0.51953 16.621,3.35938 23.379,8.36719 9.031,6.57421 15.265,16.82031 17.031,27.84371 0.73,4.3086 0.515,8.6914 0.547,13.0352 -0.008,34.2695 0.011,68.5269 -0.016,102.8049 8.207,0 16.422,0 24.629,0 0.016,-26.895 -0.02,-53.7697 0.016,-80.6447 0.004,-7.2735 4.281,-14.2774 10.64,-17.7461 7.371,-4.2071 17.297,-3.1407 23.563,2.582 4.519,3.8945 7.14,9.8242 7.023,15.7812 0,26.6875 -0.004,53.3476 0.012,80.0276 17.828,0 35.664,0 53.492,0 3.332,0 6.664,-0.117 9.981,0.293 11.136,1.261 21.687,7.082 28.652,15.871 5.535,6.863 8.719,15.457 9.422,24.242 l 0,112.598 c -0.809,9.746 -4.739,19.254 -11.434,26.425 -7.535,8.223 -18.359,13.204 -29.472,13.833" /><path
         id="path16"
         style="fill:#ffffff;fill-opacity:1;fill-rule:nonzero;stroke:none"
         d="m 499.121,112.773 c 0,-19.2769 -2.18,-23.6402 -17.82,-23.6402 -15.281,0 -17.824,3.6328 -17.824,23.6402 l 0,173.52 c 0,18.551 2.543,22.922 17.824,22.922 15.277,0 17.82,-3.277 17.82,-22.922 l 0,-173.52 z m -17.82,233.907 c -49.481,0 -59.66,-7.274 -59.66,-60.387 l 0,-173.52 c 0,-53.4761 10.179,-60.7613 59.66,-60.7613 49.469,0 60.015,7.2852 60.015,60.7613 l 0,173.52 c 0,53.113 -10.546,60.387 -60.015,60.387" /><path
         id="path18"
         style="fill:#ffffff;fill-opacity:1;fill-rule:nonzero;stroke:none"
         d="m 638.441,105.137 c 0,-14.5628 -3.273,-18.1917 -15.644,-18.1917 -8,0 -13.457,4.3633 -16.371,11.2695 l 0,132.4142 c 2.914,6.914 8.371,11.285 16.371,11.285 12.371,0 15.644,-3.641 15.644,-18.187 l 0,-118.59 z m 0.368,170.238 c -17.465,0 -27.649,-5.09 -33.832,-17.82 l 0,16.004 -34.563,0 0,-273.559 37.109,0 0,68.75 c 5.457,-9.4531 14.918,-14.9102 31.653,-14.9102 28.734,0 35.277,9.8204 35.277,44.375 l 0,132.7812 c 0,34.199 -6.543,44.379 -35.644,44.379" /><path
         id="path20"
         style="fill:#ffffff;fill-opacity:1;fill-rule:nonzero;stroke:none"
         d="m 768.672,181.527 -31.285,0 0,46.563 c 0,13.824 2.183,16.375 15.64,16.375 13.102,0 15.645,-2.551 15.645,-16.375 l 0,-46.563 z m -15.645,95.672 c -42.922,0 -52.015,-5.461 -52.015,-46.203 l 0,-132.7812 c 0,-40.7343 9.093,-46.2031 52.015,-46.2031 40.375,0 49.106,5.4688 49.106,46.2031 l 0,31.6482 -33.461,0 0,-29.461 c 0,-13.82 -2.543,-16.7418 -15.645,-16.7418 -13.457,0 -15.64,2.9218 -15.64,16.7418 l 0,51.297 64.746,0 0,79.297 c 0,40.742 -8.731,46.203 -49.106,46.203" /><path
         id="path22"
         style="fill:#ffffff;fill-opacity:1;fill-rule:nonzero;stroke:none"
         d="m 900.352,275.375 c -18.184,0 -28.743,-5.82 -34.192,-16.359 l 0,14.543 -34.558,0 0,-217.8949 37.109,0 0,174.9649 c 2.898,6.914 7.641,11.285 17.09,11.285 12.363,0 16.015,-3.641 16.015,-14.918 l 0,-171.3319 37.11,0 0,175.3319 c 0,34.199 -9.102,44.379 -38.574,44.379" /><path
         id="path24"
         style="fill:#ffffff;fill-opacity:1;fill-rule:nonzero;stroke:none"
         d="m 1047.31,221.539 c 0,-19.644 -2.91,-23.273 -17.83,-23.273 l -17.81,0 0,108.398 17.81,0 c 16.38,0 17.83,-3.637 17.83,-22.191 l 0,-62.934 z m -17.83,121.504 -59.644,0 0,-287.3789 41.834,0 0,108.7699 17.81,0 c 48.75,0 60.03,6.906 60.03,58.57 l 0,61.469 c 0,51.293 -10.55,58.57 -60.03,58.57" /><path
         id="path26"
         style="fill:#ffffff;fill-opacity:1;fill-rule:nonzero;stroke:none"
         d="m 1182.65,275.375 c -17.85,0 -28.74,-6.547 -33.85,-16.359 l 0,14.543 -34.56,0 0,-217.8949 37.12,0 0,174.2419 c 2.55,7.637 8.73,12.008 16.37,12.008 12.36,0 15.27,-3.641 15.27,-15.277 l 0,-49.84 33.47,0 0,54.199 c 0,34.199 -8.36,44.379 -33.82,44.379" /><path
         id="path28"
         style="fill:#ffffff;fill-opacity:1;fill-rule:nonzero;stroke:none"
         d="m 1302.31,101.855 c 0,-11.6284 -2.17,-15.6441 -16,-15.6441 -13.47,0 -16.01,2.9219 -16.01,15.6441 l 0,125.141 c 0,12.008 2.54,15.285 16.01,15.285 13.47,0 16,-2.551 16,-15.285 l 0,-125.141 z m 36.02,129.141 c 0,40.742 -9.46,46.203 -52.02,46.203 -42.92,0 -52.03,-5.461 -52.03,-46.203 l 0,-132.7812 c 0,-40.7343 9.11,-46.2031 52.03,-46.2031 42.56,0 52.02,5.4688 52.02,46.2031 l 0,132.7812" /><path
         id="path30"
         style="fill:#ffffff;fill-opacity:1;fill-rule:nonzero;stroke:none"
         d="m 1369.26,305.211 37.0898,0 0,37.832 -37.0898,0 0,-37.832 z" /><path
         id="path32"
         style="fill:#ffffff;fill-opacity:1;fill-rule:nonzero;stroke:none"
         d="m 1369.26,52.0117 c 0,-15.2656 -5.1,-20.7304 -17.48,-20.7304 l -17.45,0 0,-31.2813 20.37,0 c 37.1,0 51.65,17.1094 51.65,52.0117 l 0,221.5473 -37.09,0 0,-221.5473" /><path
         id="path34"
         style="fill:#ffffff;fill-opacity:1;fill-rule:nonzero;stroke:none"
         d="m 1503.11,181.527 -31.28,0 0,46.563 c 0,13.824 2.19,16.375 15.65,16.375 13.09,0 15.63,-2.551 15.63,-16.375 l 0,-46.563 z m -15.63,95.672 c -42.94,0 -52.04,-5.461 -52.04,-46.203 l 0,-132.7812 c 0,-40.7343 9.1,-46.2031 52.04,-46.2031 40.38,0 49.1,5.4688 49.1,46.2031 l 0,31.6482 -33.47,0 0,-29.461 c 0,-13.82 -2.54,-16.7418 -15.63,-16.7418 -13.46,0 -15.65,2.9218 -15.65,16.7418 l 0,51.297 64.75,0 0,79.297 c 0,40.742 -8.72,46.203 -49.1,46.203" /><path
         id="path36"
         style="fill:#ffffff;fill-opacity:1;fill-rule:nonzero;stroke:none"
         d="m 1615.15,277.199 c -42.55,0 -52.02,-5.82 -52.02,-46.203 l 0,-132.7812 c 0,-40.0117 8.73,-46.2031 52.02,-46.2031 38.93,0 49.11,5.0977 49.11,46.2031 l 0,60.0392 -33.83,0 0,-56.399 c 0,-11.6284 -2.55,-15.6441 -15.28,-15.6441 -13.46,0 -16,2.9219 -16,15.6441 l 0,125.141 c 0,12.375 1.82,15.285 16,15.285 12.73,0 15.28,-2.551 15.28,-15.285 l 0,-34.191 33.83,0 0,38.191 c 0,38.926 -8,46.203 -49.11,46.203" /><path
         id="path38"
         style="fill:#ffffff;fill-opacity:1;fill-rule:nonzero;stroke:none"
         d="m 1756.3,243.367 0,30.192 -25.47,0 0,66.207 -37.1,0 0,-66.207 -13.47,0 0,-30.192 13.47,0 0,-141.512 c 0,-32.0112 12.73,-46.1909 52.74,-46.1909 l 9.47,0 0,31.6523 -6.92,0 c -14.56,0 -18.19,4.3633 -18.19,19.2776 l 0,136.773 25.47,0" /></g></g></svg>