<?xml version="1.0" encoding="utf-8"?>
<!-- Generator: Adobe Illustrator 16.0.4, SVG Export Plug-In . SVG Version: 6.00 Build 0)  -->
<!DOCTYPE svg PUBLIC "-//W3C//DTD SVG 1.1//EN" "http://www.w3.org/Graphics/SVG/1.1/DTD/svg11.dtd">
<svg version="1.1" id="Ebene_1" xmlns="http://www.w3.org/2000/svg" xmlns:xlink="http://www.w3.org/1999/xlink" x="0px" y="0px"
	 width="700px" height="150px" viewBox="0 0 700 150" enable-background="new 0 0 700 150" xml:space="preserve">
<g>
	<g>
		<path d="M180.327,86.647V35.408c0-14.7,9.8-24.5,24.08-24.5c14.42,0,24.36,9.8,24.36,24.5v51.239c0,14.7-9.94,24.5-24.36,24.5
			C190.126,111.147,180.327,101.348,180.327,86.647z M218.826,87.208v-52.22c0-9.1-5.88-15.4-14.42-15.4
			c-8.4,0-14.14,6.3-14.14,15.4v52.22c0,8.96,5.74,15.26,14.14,15.26C212.946,102.468,218.826,96.168,218.826,87.208z"/>
		<path d="M283.785,75.028c0,5.18,0,9.939-0.14,15.119c-0.42,12.32-7.56,21-18.9,21c-5.74,0-10.64-2.24-13.86-6.72
			c-0.42-0.42-0.7-0.14-0.7,0.28v31.08c0,0.84-0.56,1.399-1.4,1.399h-7.14c-0.84,0-1.4-0.56-1.4-1.399v-95.2
			c0-0.84,0.56-1.4,1.4-1.4h7.14c0.84,0,1.4,0.56,1.4,1.4v4.06c0,0.42,0.28,0.7,0.7,0.28c3.22-4.48,8.12-6.86,13.86-6.86
			c11.2,0,18.34,8.96,18.9,21.42C283.785,64.668,283.785,69.849,283.785,75.028z M273.845,88.468c0.14-4.9,0-10.22,0-13.859v-13.86
			c0.14-8.26-4.76-14-12.04-14c-6.72,0-11.62,5.6-11.62,14v27.72c0,8.4,4.9,14,11.62,14
			C268.945,102.468,273.985,96.868,273.845,88.468z"/>
		<path d="M334.604,78.388h-31.92c-0.28,0-0.56,0.28-0.56,0.561v10.22c0,7.84,4.9,13.3,11.9,13.3c6.16,0,10.5-4.061,11.76-9.8
			c0.28-0.84,0.7-1.261,1.54-1.261l7,0.281c0.84,0,1.4,0.699,1.26,1.539c-1.54,10.92-9.24,17.92-21.56,17.92
			c-13.3,0-21.84-8.539-21.84-21.42V59.488c0-12.6,8.54-21.42,21.84-21.42c13.58,0,21.98,8.82,21.98,21.42v17.499
			C336.004,77.828,335.444,78.388,334.604,78.388z M302.124,60.188v9.379c0,0.281,0.28,0.561,0.56,0.561h22.96
			c0.28,0,0.56-0.279,0.56-0.561v-9.379c0-7.98-4.9-13.44-12.18-13.44C307.024,46.748,302.124,52.208,302.124,60.188z"/>
		<path d="M388.224,60.468v48.16c0,0.84-0.56,1.4-1.399,1.4h-7.141c-0.84,0-1.4-0.561-1.4-1.4v-47.32c0-9.1-4.06-14.42-11.199-14.42
			c-7.42,0-12.04,5.74-12.04,15.12v46.62c0,0.84-0.56,1.4-1.4,1.4h-7.14c-0.84,0-1.4-0.561-1.4-1.4v-68.04c0-0.84,0.56-1.4,1.4-1.4
			h7.14c0.84,0,1.4,0.56,1.4,1.4v4.62c0,0.42,0.42,0.56,0.7,0.14c3.64-5.04,8.96-7.14,14.56-7.14
			C381.783,38.208,388.224,46.468,388.224,60.468z"/>
		<path d="M447.583,39.048c0,16.1-8.96,26.74-22.399,26.74h-14.42c-0.281,0-0.561,0.28-0.561,0.56v42.28c0,0.84-0.561,1.4-1.4,1.4
			h-7.14c-0.84,0-1.399-0.561-1.399-1.4v-95.34c0-0.84,0.56-1.4,1.399-1.4h23.101C438.482,11.888,447.583,22.808,447.583,39.048z
			 M437.643,39.188c0-11.34-5.74-18.62-14.14-18.62h-12.739c-0.281,0-0.561,0.28-0.561,0.56v35.979c0,0.28,0.279,0.56,0.561,0.56
			h12.739C431.902,57.668,437.643,50.528,437.643,39.188z"/>
		<path d="M485.102,40.028c0.699,0.42,0.84,1.12,0.699,1.82l-1.54,7.14c-0.14,0.98-0.84,1.12-1.819,0.84
			c-1.541-0.7-3.641-0.98-5.881-0.56c-6.72,0.42-11.479,7.84-11.479,17.36v42c0,0.84-0.56,1.4-1.399,1.4h-7.141
			c-0.84,0-1.4-0.561-1.4-1.4v-68.04c0-0.84,0.561-1.4,1.4-1.4h7.141c0.84,0,1.399,0.56,1.399,1.4v8.4c0,0.56,0.42,0.56,0.7,0.14
			c2.38-6.3,6.58-10.64,13.3-10.64C481.881,38.488,483.701,39.188,485.102,40.028z"/>
		<path d="M488.461,89.728V59.488c0-12.6,8.541-21.42,21.98-21.42s22.119,8.82,22.119,21.42v30.239
			c0,12.881-8.68,21.42-22.119,21.42S488.461,102.608,488.461,89.728z M522.621,89.168v-28.98c0-7.98-5.04-13.44-12.18-13.44
			c-7.141,0-12.04,5.46-12.04,13.44v28.98c0,7.84,4.899,13.3,12.04,13.3C517.581,102.468,522.621,97.008,522.621,89.168z"/>
		<path d="M529.619,137.747v-5.879c0-0.84,0.561-1.4,1.4-1.4c7.98-0.28,11.34-5.74,11.34-14.279V40.588c0-0.84,0.561-1.4,1.4-1.4
			h7.14c0.84,0,1.399,0.56,1.399,1.4v75.601c0,13.999-3.779,22.959-21.279,22.959C530.18,139.147,529.619,138.588,529.619,137.747z
			 M540.399,19.168c0-4.34,3.22-7.28,6.86-7.28c3.779,0,7,2.94,7,7.28c0,4.2-2.801,7.28-7,7.28
			C543.199,26.448,540.399,23.368,540.399,19.168z"/>
		<path d="M604.658,78.388h-31.92c-0.279,0-0.56,0.28-0.56,0.561v10.22c0,7.84,4.899,13.3,11.899,13.3c6.16,0,10.5-4.061,11.76-9.8
			c0.281-0.84,0.701-1.261,1.541-1.261l7,0.281c0.84,0,1.4,0.699,1.26,1.539c-1.541,10.92-9.24,17.92-21.561,17.92
			c-13.299,0-21.84-8.539-21.84-21.42V59.488c0-12.6,8.541-21.42,21.84-21.42c13.58,0,21.98,8.82,21.98,21.42v17.499
			C606.059,77.828,605.498,78.388,604.658,78.388z M572.179,60.188v9.379c0,0.281,0.28,0.561,0.56,0.561h22.961
			c0.279,0,0.559-0.279,0.559-0.561v-9.379c0-7.98-4.898-13.44-12.18-13.44C577.078,46.748,572.179,52.208,572.179,60.188z"/>
		<path d="M613.617,89.728V59.488c0-12.46,8.541-21.42,21.84-21.42c13.441,0,22.121,8.96,22.121,19.459v1.4
			c0,0.84-0.561,1.4-1.4,1.4l-7.141,0.28c-0.84,0-1.4-0.56-1.4-1.26v-1.12c0-6.02-4.898-11.48-12.18-11.48
			c-7,0-11.9,5.46-11.9,13.44v28.84c0,7.979,4.9,13.439,11.9,13.439c7.281,0,12.18-5.46,12.18-11.48v-0.979
			c0-0.84,0.561-1.399,1.4-1.399l7.141,0.14c0.84,0,1.4,0.56,1.4,1.399v1.541c0,10.92-8.68,19.459-22.121,19.459
			C622.158,111.147,613.617,102.608,613.617,89.728z"/>
		<path d="M688.938,46.608h-10.639c-0.281,0-0.561,0.28-0.561,0.56v42.84c0,8.96,3.221,11.34,9.1,11.2h1.4c0.84,0,1.4,0.561,1.4,1.4
			v6.02c0,0.84-0.561,1.4-1.4,1.4h-3.5c-9.939,0-16.801-2.94-16.801-17.08v-45.78c0-0.28-0.279-0.56-0.559-0.56h-5.461
			c-0.84,0-1.4-0.56-1.4-1.4v-4.62c0-0.84,0.561-1.4,1.4-1.4h5.461c0.279,0,0.559-0.28,0.559-0.56v-15.68c0-0.84,0.561-1.4,1.4-1.4
			h7c0.84,0,1.4,0.56,1.4,1.4v15.68c0,0.28,0.279,0.56,0.561,0.56h10.639c0.84,0,1.4,0.56,1.4,1.4v4.62
			C690.338,46.048,689.777,46.608,688.938,46.608z"/>
	</g>
	<g>
		<path fill="#1A67A3" d="M78,108h0.013C78.01,108,78,108.085,78,108.167c0,4.01,3.357,7.223,7.5,7.223s7.5-3.195,7.5-7.205
			c0-0.081-0.01-0.185-0.013-0.185H93V90H78V108z"/>
		<path fill="#1A67A3" d="M113,11h-10c-13.807,0-25,11.045-25,24.853v11v9V66H44h-1h-9C20.193,66,9,77.046,9,90.853v20
			C9,124.659,20.193,136,34,136h10c13.807,0,25-11.341,25-25.147v-20C69,90.518,68.988,90,68.975,90H54v0.853v7v13
			C54,116.366,49.514,121,44,121H34c-5.514,0-10-4.634-10-10.147v-20C24,85.339,28.486,81,34,81h8h1h1h22.914H69h34h7h3
			c13.807,0,25-11.341,25-25.147v-20C138,22.045,126.807,11,113,11z M123,55.853C123,61.367,118.514,66,113,66h-3h-3h-4H93V55.853
			v-9v-1v-10C93,30.338,97.486,26,103,26h10c5.514,0,10,4.338,10,9.853V55.853z"/>
	</g>
</g>
</svg>
