<?xml version="1.0" encoding="utf-8"?>
<!-- Generator: Adobe Illustrator 16.0.4, SVG Export Plug-In . SVG Version: 6.00 Build 0)  -->
<!DOCTYPE svg PUBLIC "-//W3C//DTD SVG 1.1//EN" "http://www.w3.org/Graphics/SVG/1.1/DTD/svg11.dtd">
<svg version="1.1" id="Ebene_1" xmlns="http://www.w3.org/2000/svg" xmlns:xlink="http://www.w3.org/1999/xlink" x="0px" y="0px"
	 width="150px" height="150px" viewBox="0 0 150 150" enable-background="new 0 0 150 150" xml:space="preserve">
<g>
	<path fill="none" d="M115,28h-10c-5.514,0-10,4.338-10,9.853v10v1v9V68h10h4h3h3c5.514,0,10-4.633,10-10.147v-20
		C125,32.338,120.514,28,115,28z"/>
	<path fill="#1D68A0" d="M80,110h0.013C80.01,110,80,110.086,80,110.166c0,4.01,3.357,7.224,7.5,7.224s7.5-3.194,7.5-7.204
		c0-0.082-0.01-0.186-0.013-0.186H95V92H80V110z"/>
	<path fill="#1D68A0" d="M115,13h-10c-13.807,0-25,11.045-25,24.853v11v9V68H46h-1h-9c-13.807,0-25,11.046-25,24.853v20
		C11,126.659,22.193,138,36,138h10c13.807,0,25-11.341,25-25.147v-20C71,92.518,70.988,92,70.975,92H56v0.853v7v13
		C56,118.366,51.514,123,46,123H36c-5.514,0-10-4.634-10-10.147v-20C26,87.339,30.486,83,36,83h8h1h1h22.914H71h34h7h3
		c13.807,0,25-11.341,25-25.147v-20C140,24.045,128.807,13,115,13z M125,57.853C125,63.367,120.514,68,115,68h-3h-3h-4H95V57.853v-9
		v-1v-10C95,32.338,99.486,28,105,28h10c5.514,0,10,4.338,10,9.853V57.853z"/>
</g>
</svg>
