<?xml version="1.0" encoding="utf-8"?>
<!-- Generator: Adobe Illustrator 16.0.4, SVG Export Plug-In . SVG Version: 6.00 Build 0)  -->
<!DOCTYPE svg PUBLIC "-//W3C//DTD SVG 1.1//EN" "http://www.w3.org/Graphics/SVG/1.1/DTD/svg11.dtd">
<svg version="1.1" id="Ebene_1" xmlns="http://www.w3.org/2000/svg" xmlns:xlink="http://www.w3.org/1999/xlink" x="0px" y="0px"
	 width="31px" height="34.5px" viewBox="0 0 31 34.5" style="enable-background:new 0 0 31 34.5;" xml:space="preserve">
<style type="text/css">
<![CDATA[
	.st0{fill:#3493B3;}
]]>
</style>
<g>
	<path class="st0" d="M26.9,0h-6.2c-0.9,0.1-1.8,0.4-2.5,1c-0.8,0.7-1.3,1.6-1.5,2.6c-0.1,0.4-0.1,0.8-0.1,1.2c0,3.4,0,6.9,0,10.3
		c-4.1,0-8.2,0-12.4,0c-1.4,0-2.7,0.6-3.5,1.7c-0.5,0.7-0.8,1.5-0.9,2.4v11.1c0.1,1.1,0.6,2.2,1.4,3c0.7,0.7,1.7,1.1,2.7,1.1h6.1
		c0.8-0.1,1.7-0.3,2.3-0.8c0.9-0.7,1.5-1.7,1.7-2.8c0.1-0.4,0.1-0.9,0.1-1.3c0-3.4,0-6.9,0-10.3c0.8,0,1.6,0,2.5,0
		c0,2.7,0,5.4,0,8.1c0,0.7,0.4,1.4,1.1,1.8c0.7,0.4,1.7,0.3,2.4-0.3c0.5-0.4,0.7-1,0.7-1.6c0-2.7,0-5.3,0-8c1.8,0,3.6,0,5.3,0
		c0.3,0,0.7,0,1,0c1.1-0.1,2.2-0.7,2.9-1.6c0.6-0.7,0.9-1.5,0.9-2.4V4c-0.1-1-0.5-1.9-1.1-2.6C29.1,0.6,28,0.1,26.9,0z M8.7,30.4
		c-1,0-2,0-3,0c-0.7,0-1.3-0.4-1.5-1c-0.1-0.3-0.1-0.5-0.1-0.8c0-2.6,0-5.1,0-7.7c0-0.7,0.6-1.4,1.3-1.5c1.1,0,2.1,0,3.2,0
		c0.8,0,1.5,0.7,1.5,1.5c0,2.7,0,5.4,0,8.1C10.2,29.7,9.5,30.4,8.7,30.4z M26.9,13.7c0,0.8-0.7,1.5-1.5,1.5c-1,0-2.1,0-3.1,0
		c-0.8,0-1.5-0.7-1.5-1.5c0-2.7,0-5.4,0-8.1c0-0.7,0.6-1.4,1.3-1.5c0.8,0,1.7,0,2.5,0c0.4,0,0.8-0.1,1.2,0.1c0.6,0.2,1,0.8,1,1.4
		C26.9,8.3,26.9,11,26.9,13.7z"/>
</g>
</svg>
